<svg width="1920" height="1920" viewBox="0 0 1920 1920" fill="none" xmlns="http://www.w3.org/2000/svg">
<rect width="1920" height="1920" rx="256" fill="url(#paint0_linear_420_42)"/>
<path d="M800 737.5C800 716.789 816.789 700 837.5 700H922.5C943.211 700 960 716.789 960 737.5V1562.5C960 1583.21 943.211 1600 922.5 1600H837.5C816.789 1600 800 1583.21 800 1562.5V737.5Z" fill="url(#paint1_linear_420_42)"/>
<path d="M800 357.5C800 336.789 816.789 320 837.5 320H922.5C943.211 320 960 336.789 960 357.5V442.5C960 463.211 943.211 480 922.5 480H837.5C816.789 480 800 463.211 800 442.5V357.5Z" fill="url(#paint2_linear_420_42)"/>
<path d="M1440 357.5C1440 336.789 1456.79 320 1477.5 320H1562.5C1583.21 320 1600 336.789 1600 357.5V1562.5C1600 1583.21 1583.21 1600 1562.5 1600H1477.5C1456.79 1600 1440 1583.21 1440 1562.5V357.5Z" fill="url(#paint3_linear_420_42)"/>
<path d="M838.295 976.432C823.65 961.788 823.65 938.044 838.295 923.399L898.399 863.295C913.044 848.651 936.787 848.651 951.432 863.295L1562.28 1474.14C1576.92 1488.79 1576.92 1512.53 1562.28 1527.18L1502.18 1587.28C1487.53 1601.92 1463.79 1601.92 1449.14 1587.28L838.295 976.432Z" fill="url(#paint4_linear_420_42)"/>
<path d="M320 1477.5C320 1456.79 336.789 1440 357.5 1440H922.5C943.211 1440 960 1456.79 960 1477.5V1562.5C960 1583.21 943.211 1600 922.5 1600H357.5C336.789 1600 320 1583.21 320 1562.5V1477.5Z" fill="url(#paint5_linear_420_42)"/>
<path d="M320 357.5C320 336.789 336.789 320 357.5 320H442.5C463.211 320 480 336.789 480 357.5V1562.5C480 1583.21 463.211 1600 442.5 1600H357.5C336.789 1600 320 1583.21 320 1562.5V357.5Z" fill="url(#paint6_linear_420_42)"/>
<defs>
<linearGradient id="paint0_linear_420_42" x1="308.5" y1="273" x2="1636.5" y2="1611.5" gradientUnits="userSpaceOnUse">
<stop stop-color="#00B2FF"/>
<stop offset="1" stop-color="#8000FF"/>
</linearGradient>
<linearGradient id="paint1_linear_420_42" x1="320" y1="320" x2="1851.66" y2="804.627" gradientUnits="userSpaceOnUse">
<stop stop-color="#D9D9D9"/>
<stop offset="0.0001" stop-color="white"/>
<stop offset="1" stop-color="#B1B1B1"/>
</linearGradient>
<linearGradient id="paint2_linear_420_42" x1="320" y1="320" x2="1851.66" y2="804.627" gradientUnits="userSpaceOnUse">
<stop stop-color="#D9D9D9"/>
<stop offset="0.0001" stop-color="white"/>
<stop offset="1" stop-color="#B1B1B1"/>
</linearGradient>
<linearGradient id="paint3_linear_420_42" x1="320" y1="320" x2="1851.66" y2="804.627" gradientUnits="userSpaceOnUse">
<stop stop-color="#D9D9D9"/>
<stop offset="0.0001" stop-color="white"/>
<stop offset="1" stop-color="#B1B1B1"/>
</linearGradient>
<linearGradient id="paint4_linear_420_42" x1="320" y1="320" x2="1851.66" y2="804.627" gradientUnits="userSpaceOnUse">
<stop stop-color="#D9D9D9"/>
<stop offset="0.0001" stop-color="white"/>
<stop offset="1" stop-color="#B1B1B1"/>
</linearGradient>
<linearGradient id="paint5_linear_420_42" x1="320" y1="320" x2="1851.66" y2="804.627" gradientUnits="userSpaceOnUse">
<stop stop-color="#D9D9D9"/>
<stop offset="0.0001" stop-color="white"/>
<stop offset="1" stop-color="#B1B1B1"/>
</linearGradient>
<linearGradient id="paint6_linear_420_42" x1="320" y1="320" x2="1851.66" y2="804.627" gradientUnits="userSpaceOnUse">
<stop stop-color="#D9D9D9"/>
<stop offset="0.0001" stop-color="white"/>
<stop offset="1" stop-color="#B1B1B1"/>
</linearGradient>
</defs>
</svg>
